# xmcd
#
# Track frame offsets: 
#        150
#        15466
#        16529
#        27177
#        32107
#        41213
#        58761
#        61136
#        72031
#        74678
#        87120
#        102347
#        108757
#        113454
#
# Disc length: 1620 seconds
#
# Revision: 0
# Processed by: cddbd v1.5.2PL0 Copyright (c) Steve Scherf et al.
# Submitted via: ExactAudioCopy v0.99pb3
#
DISCID=a906520e
DTITLE=Mountain Ruckus - Mountain Ruckus
DYEAR=2007
DGENRE=Bluegrass
TTITLE0=Rock This Room/9 to 5
TTITLE1=Restauraunt on the Moon
TTITLE2=Ghost Riders in the Sky/Rawhide
TTITLE3=Foggy Mountain Special
TTITLE4=Talkin' Dog
TTITLE5=Fiddle Medley
TTITLE6=Got Worms?
TTITLE7=Cowboy Sweetheart
TTITLE8=The Perfect Diet
TTITLE9=Banjo Medley
TTITLE10=The Letter
TTITLE11=Gospel Medley
TTITLE12=Rocky Top
TTITLE13=Showin' off my Education
EXTD=
EXTT0=
EXTT1=
EXTT2=
EXTT3=
EXTT4=
EXTT5=
EXTT6=
EXTT7=
EXTT8=
EXTT9=
EXTT10=
EXTT11=
EXTT12=
EXTT13=
PLAYORDER=
